<svg xmlns="http://www.w3.org/2000/svg" width="166.869" height="169.873" viewBox="0 0 166.869 169.873">
  <defs>
    <style>
      .cls-1 {
        fill: none;
        stroke: #000;
        stroke-linecap: round;
        stroke-linejoin: round;
        stroke-width: 3px;
      }
    </style>
  </defs>
  <path id="Icon_feather-phone-call" data-name="Icon feather-phone-call" class="cls-1" d="M78.99,25.978C90.7,28.364,99.854,37.923,102.139,50.15M78.99,1.5c24.494,2.841,43.838,23.016,46.59,48.589m-5.86,48.834v18.359a12.5,12.5,0,0,1-3.8,9.068,11.415,11.415,0,0,1-8.979,3.171,112.866,112.866,0,0,1-50.575-18.787A116.936,116.936,0,0,1,21.207,74.016,124.6,124.6,0,0,1,3.215,20.96a12.582,12.582,0,0,1,3.017-9.353A11.5,11.5,0,0,1,14.878,7.62H32.459A11.892,11.892,0,0,1,44.18,18.145a81.434,81.434,0,0,0,4.1,17.2,12.634,12.634,0,0,1-2.637,12.912L38.2,56.025A95.945,95.945,0,0,0,73.364,92.742l7.443-7.772a11.364,11.364,0,0,1,12.365-2.754A72.651,72.651,0,0,0,109.64,86.5,12.1,12.1,0,0,1,119.72,98.923Z" transform="matrix(0.921, 0.391, -0.391, 0.921, 49.687, -0.499)"/>
</svg>
