<svg xmlns="http://www.w3.org/2000/svg" width="47.905" height="47.988" viewBox="0 0 47.905 47.988">
  <path id="Icon_feather-phone-call" data-name="Icon feather-phone-call" d="M31.354,10.417a10.417,10.417,0,0,1,8.229,8.229M31.354,2.083A18.75,18.75,0,0,1,47.917,18.625M45.833,35.25V41.5a4.167,4.167,0,0,1-4.542,4.167,41.229,41.229,0,0,1-17.979-6.4,40.625,40.625,0,0,1-12.5-12.5,41.229,41.229,0,0,1-6.4-18.063A4.167,4.167,0,0,1,8.563,4.167h6.25A4.167,4.167,0,0,1,18.979,7.75,26.75,26.75,0,0,0,20.438,13.6,4.167,4.167,0,0,1,19.5,18l-2.646,2.646a33.333,33.333,0,0,0,12.5,12.5L32,30.5a4.167,4.167,0,0,1,4.4-.938,26.75,26.75,0,0,0,5.854,1.458A4.167,4.167,0,0,1,45.833,35.25Z" transform="translate(-2.315 0.217)" fill="none" stroke="#000" stroke-linecap="round" stroke-linejoin="round" stroke-width="4.167"/>
</svg>
